<?xml version="1.0" standalone="no"?>
<!DOCTYPE svg PUBLIC "-//W3C//DTD SVG 20010904//EN"
 "http://www.w3.org/TR/2001/REC-SVG-20010904/DTD/svg10.dtd">
<svg version="1.0" xmlns="http://www.w3.org/2000/svg"
 width="1401.000000pt" height="1401.000000pt" viewBox="0 0 1401.000000 1401.000000"
 preserveAspectRatio="xMidYMid meet">
<metadata>
Created by potrace 1.14, written by Peter Selinger 2001-2017
</metadata>
<g transform="translate(0.000000,1401.000000) scale(0.100000,-0.100000)"
fill="#000000" stroke="none">
<path d="M7171 10231 c-12 -8 -11 -24 4 -107 10 -55 20 -103 21 -109 4 -19 45
-250 50 -285 3 -19 7 -42 9 -50 3 -8 7 -33 11 -55 3 -22 16 -94 29 -161 13
-66 27 -141 30 -166 l6 -46 -55 13 c-30 7 -71 11 -91 9 -45 -4 -47 1 -75 166
-11 69 -22 136 -25 150 -3 14 -7 39 -9 55 -2 17 -9 59 -16 95 -7 36 -14 76
-16 90 -2 14 -5 35 -8 47 -2 11 -8 42 -11 67 -4 26 -13 46 -20 46 -9 0 -9 -17
2 -77 7 -43 15 -89 18 -103 2 -14 6 -41 10 -60 3 -19 22 -127 41 -240 19 -113
36 -211 39 -217 2 -7 1 -13 -3 -14 -8 -1 -491 -5 -1537 -13 -682 -5 -853 -8
-1205 -22 -155 -6 -893 -5 -997 1 -64 3 -103 2 -103 -4 0 -5 -17 -7 -37 -4
-72 10 -128 10 -140 1 -6 -5 -13 -5 -16 -1 -3 5 -80 8 -171 8 -91 0 -166 2
-166 5 0 3 -7 55 -15 115 -9 61 -17 128 -20 150 -3 22 -7 60 -10 85 -17 135
-28 181 -40 168 -5 -4 18 -204 30 -265 2 -11 6 -44 9 -74 7 -57 15 -116 22
-161 4 -28 3 -28 -48 -28 -29 0 -73 -5 -98 -11 -55 -13 -145 -18 -159 -10 -6
4 -13 25 -16 46 -3 22 -7 54 -10 70 -2 17 -7 53 -10 80 -4 28 -10 75 -15 105
-5 30 -11 78 -15 105 -3 28 -7 61 -10 75 -4 25 -14 97 -20 155 -5 39 -25 184
-30 210 -2 11 -4 28 -4 38 -1 21 -41 24 -41 2 0 -8 7 -65 15 -127 9 -62 18
-129 20 -148 3 -19 11 -82 19 -140 8 -58 17 -125 20 -150 4 -25 8 -54 10 -65
5 -24 26 -200 29 -235 l2 -24 -255 -2 c-140 -1 -428 -3 -640 -5 -212 -1 -391
-5 -397 -7 -7 -2 -13 -10 -13 -17 0 -24 -86 -23 967 -14 188 2 344 1 347 -2 7
-7 17 -99 23 -216 l6 -113 -124 -1 c-68 -1 -180 -3 -249 -4 -69 -2 -187 -4
-263 -6 -95 -1 -137 -5 -134 -13 4 -12 9 -12 489 -2 153 3 278 2 279 -2 0 -4
2 -16 4 -27 2 -11 6 -39 9 -62 4 -24 8 -62 12 -85 3 -24 7 -52 8 -63 2 -11 8
-49 12 -85 8 -66 10 -78 13 -82 1 -2 4 -21 5 -43 5 -68 18 -155 27 -183 5 -18
6 -5 3 38 -3 36 -8 68 -11 73 -2 4 0 7 5 7 5 0 12 -26 16 -57 4 -32 12 -94 17
-138 12 -96 22 -282 16 -275 -3 3 -8 34 -11 70 -4 35 -10 67 -13 70 -3 3 -3
-16 0 -42 4 -31 2 -48 -6 -52 -9 -3 -9 -5 1 -5 6 -1 12 -12 12 -26 0 -14 6
-25 13 -25 8 0 7 -4 -3 -10 -8 -5 -10 -10 -3 -10 6 0 9 -9 6 -22 -4 -19 -3
-20 6 -8 7 9 11 10 11 3 0 -6 -5 -15 -11 -19 -7 -4 -8 -23 -4 -53 4 -25 9 -99
10 -163 2 -64 6 -150 10 -190 13 -153 15 -185 20 -247 6 -87 44 -279 61 -316
13 -27 14 -16 10 115 -6 160 -16 342 -21 379 -2 13 -1 21 2 17 8 -7 8 -8 17
-86 3 -30 8 -66 10 -80 4 -22 18 -114 31 -215 3 -16 7 -52 10 -80 3 -27 10
-75 15 -105 5 -30 12 -77 15 -105 3 -27 8 -61 10 -75 3 -22 19 -137 30 -217 1
-16 6 -46 9 -68 4 -33 27 -198 51 -380 13 -96 23 -176 30 -237 3 -27 7 -68 10
-93 3 -25 7 -65 10 -90 12 -105 15 -133 21 -192 3 -35 2 -63 -2 -63 -5 0 -36
-4 -69 -10 -33 -5 -82 -12 -110 -15 -27 -3 -75 -10 -105 -15 -30 -5 -75 -12
-100 -15 -25 -3 -52 -8 -60 -10 -8 -2 -40 -7 -70 -10 -30 -3 -62 -8 -70 -10
-8 -2 -35 -7 -60 -10 -79 -9 -110 -17 -110 -27 0 -10 68 -4 185 15 17 3 50 8
75 12 55 8 91 14 128 19 15 3 47 8 72 11 25 3 56 8 70 10 14 2 43 6 65 10 23
3 50 7 60 9 75 14 104 16 108 9 3 -4 8 -42 12 -83 4 -41 9 -86 10 -100 2 -14
7 -56 10 -95 4 -38 18 -100 30 -137 l23 -68 -26 0 c-15 0 -45 5 -67 10 -23 5
-79 16 -125 24 -47 9 -96 18 -110 20 -14 3 -43 7 -64 11 -21 3 -48 7 -60 10
-22 5 -42 9 -141 25 -57 9 -76 13 -135 25 -14 2 -41 7 -60 10 -19 3 -111 19
-205 36 -93 17 -181 32 -195 34 -22 3 -70 11 -103 18 -6 1 -13 -7 -15 -19 -3
-18 5 -22 70 -33 99 -17 94 -16 343 -60 248 -45 266 -48 315 -56 19 -3 42 -8
50 -10 8 -2 33 -7 55 -10 23 -3 52 -8 65 -10 50 -10 316 -56 355 -61 22 -3 46
-11 53 -18 11 -11 -42 -24 -258 -62 -8 -2 -42 -8 -75 -13 -59 -11 -85 -16
-135 -26 -14 -3 -51 -9 -82 -15 -32 -6 -70 -13 -85 -16 -16 -3 -41 -7 -58 -10
-59 -9 -75 -15 -75 -25 0 -7 12 -9 32 -5 18 3 49 8 68 11 19 3 46 8 60 10 14
3 36 8 50 10 23 5 246 46 430 80 41 8 90 17 108 21 17 3 32 3 33 -2 1 -12 5
-40 12 -89 4 -22 14 -94 22 -160 9 -66 18 -133 21 -150 16 -113 24 -171 24
-177 0 -15 40 -8 40 7 0 12 -18 145 -50 370 -5 39 -12 90 -15 115 -4 25 -8 57
-11 71 -3 19 1 28 14 31 9 2 85 -8 167 -23 83 -16 168 -31 190 -35 22 -4 49
-8 60 -10 57 -9 164 -26 195 -30 19 -2 50 -6 68 -9 17 -3 49 -8 70 -11 50 -7
79 -12 207 -34 61 -11 128 -22 150 -25 22 -3 47 -8 54 -11 8 -3 35 -7 60 -10
25 -3 48 -7 51 -9 4 -2 29 -7 56 -11 27 -3 50 -7 52 -9 1 -1 -93 -21 -210 -44
-117 -23 -222 -44 -233 -46 -11 -3 -94 -19 -185 -37 -91 -17 -167 -33 -169
-34 -1 -2 0 -7 3 -12 3 -5 132 17 293 49 158 32 308 61 333 65 25 3 48 8 51
10 3 2 21 6 40 9 19 3 57 10 86 16 46 9 77 5 255 -29 183 -36 239 -47 303 -57
11 -2 72 -13 135 -24 103 -18 246 -40 355 -56 88 -13 344 -56 415 -70 87 -17
111 -21 200 -36 35 -5 66 -12 68 -14 2 -2 -30 -11 -70 -20 -249 -57 -487 -112
-573 -131 -78 -17 -73 -16 -170 -39 -38 -9 -79 -19 -90 -21 -81 -16 -163 -36
-174 -43 -20 -13 -6 -44 16 -37 19 6 401 94 443 102 14 3 79 18 145 34 143 33
213 49 240 54 11 2 38 9 60 15 22 5 55 13 74 16 19 3 37 7 40 9 3 2 22 7 41
10 19 3 58 12 85 19 31 8 65 10 90 6 22 -4 62 -10 89 -14 27 -3 52 -8 55 -10
4 -2 25 -6 47 -9 22 -4 51 -9 64 -11 14 -3 78 -14 142 -26 64 -11 127 -22 140
-24 13 -3 75 -14 138 -25 63 -11 126 -22 140 -25 14 -3 41 -8 60 -11 19 -3 69
-12 110 -19 41 -8 92 -17 112 -19 21 -3 57 -10 80 -15 24 -5 63 -12 88 -16 25
-3 52 -8 60 -10 8 -2 31 -6 50 -9 19 -3 46 -8 60 -11 13 -2 42 -7 65 -10 22
-3 47 -8 56 -11 11 -3 18 3 22 15 5 22 -2 26 -68 35 -22 4 -51 8 -65 11 -49
10 -144 28 -220 40 -14 3 -36 7 -50 10 -44 8 -84 15 -125 20 -22 3 -47 8 -56
11 -9 2 -32 7 -50 9 -19 3 -45 7 -59 10 -14 3 -41 8 -60 10 -19 3 -55 9 -80
15 -25 5 -112 21 -195 35 -82 14 -161 28 -175 31 -14 2 -82 14 -152 26 -71 12
-128 25 -128 28 0 4 33 14 73 23 39 9 153 35 252 57 99 23 189 43 200 45 11 3
99 23 195 46 96 22 186 43 200 45 14 3 77 17 140 32 83 20 126 26 155 20 22
-3 65 -10 95 -13 30 -4 58 -9 61 -11 3 -2 26 -6 50 -9 24 -3 69 -10 99 -15 95
-16 112 -19 159 -26 25 -4 55 -8 66 -10 11 -2 35 -6 53 -9 17 -3 48 -7 67 -10
26 -5 33 -3 30 7 -3 8 -18 15 -33 16 -15 1 -38 4 -52 7 -29 6 -208 35 -242 39
-13 2 -39 6 -58 10 -73 13 -97 17 -177 28 -46 6 -83 15 -83 21 0 6 2 8 6 5 3
-3 19 -2 37 2 63 15 648 151 762 176 11 3 31 7 45 10 14 2 45 9 70 14 25 5 56
12 70 14 14 2 78 16 142 30 64 14 127 27 140 30 13 2 59 13 103 24 75 20 282
68 333 78 12 2 98 23 190 45 92 22 187 44 212 49 105 21 317 72 355 84 22 8
54 16 70 19 17 3 53 10 80 17 28 6 62 13 78 15 15 2 73 15 130 29 56 13 122
27 147 31 52 7 151 23 195 30 26 5 50 9 155 30 14 3 39 8 55 10 17 3 45 11 63
16 22 7 64 9 115 4 45 -4 96 -9 112 -10 17 -2 48 -5 70 -9 40 -5 75 -9 195
-21 36 -4 76 -8 90 -10 14 -2 54 -6 90 -10 36 -4 79 -9 95 -11 31 -3 108 -12
180 -19 61 -6 142 -16 265 -30 118 -13 130 -13 130 1 0 10 -14 14 -47 15 -27
1 -57 3 -68 4 -11 2 -47 6 -80 9 -33 4 -76 9 -95 11 -49 7 -118 14 -165 19
-58 6 -333 36 -382 41 -96 11 -139 16 -168 20 -16 2 -64 7 -105 11 -41 4 -82
8 -90 10 -8 1 -28 3 -44 3 -60 2 -8 20 169 61 212 49 197 45 260 60 44 10 167
8 247 -5 13 -2 55 -6 93 -10 39 -3 84 -8 100 -10 17 -2 62 -7 100 -10 39 -3
81 -8 95 -10 14 -2 52 -7 85 -10 105 -9 169 -16 202 -20 18 -3 64 -7 102 -10
38 -3 79 -8 90 -10 12 -2 58 -7 104 -11 45 -3 85 -8 90 -11 4 -2 7 7 7 21 0
23 -4 26 -37 28 -48 2 -75 4 -143 12 -30 4 -75 9 -100 11 -25 3 -63 7 -85 10
-22 2 -71 7 -110 10 -38 4 -81 8 -95 11 -14 2 -55 6 -90 9 -36 3 -81 7 -100
10 -38 5 -107 12 -185 20 -119 11 -170 17 -172 19 -1 1 93 23 210 50 672 152
632 141 635 165 4 25 16 26 -153 -13 -281 -64 -431 -98 -445 -101 -8 -1 -33
-8 -55 -13 -22 -6 -51 -13 -65 -16 -14 -2 -56 -12 -95 -21 -38 -10 -83 -19
-99 -22 -16 -2 -38 -8 -49 -12 -10 -4 -45 -4 -76 0 -31 4 -87 10 -126 14 -38
4 -83 8 -100 10 -16 2 -59 7 -95 10 -74 8 -83 12 -76 30 8 22 -30 61 -71 73
-21 6 -63 14 -93 17 -30 2 -75 7 -100 9 -69 8 -181 18 -225 21 -79 6 -181 16
-230 23 -49 7 -47 8 90 34 77 15 151 30 165 33 14 3 43 8 65 11 40 6 64 19 53
29 -3 3 -25 1 -49 -4 -52 -12 -75 -16 -154 -31 -33 -6 -94 -18 -135 -26 -41
-9 -88 -19 -105 -22 -16 -3 -48 -6 -70 -6 -44 1 -187 14 -195 19 -3 1 -41 6
-84 10 -43 4 -86 8 -95 10 -9 1 -56 6 -105 10 -50 4 -97 8 -105 10 -9 1 -52 6
-95 10 -43 4 -86 8 -95 10 -9 1 -52 6 -96 10 -44 4 -87 8 -95 10 -9 2 -49 6
-90 9 -41 4 -86 8 -100 10 -43 7 -174 19 -200 18 -24 -1 -24 -1 -3 8 12 5 41
12 65 15 23 4 45 8 48 10 3 2 26 6 51 9 25 3 66 10 90 15 24 5 60 12 79 16 43
7 137 24 168 31 13 2 20 9 16 15 -3 6 -18 8 -32 4 -15 -3 -40 -8 -57 -10 -16
-3 -77 -14 -135 -25 -58 -11 -117 -22 -133 -24 -15 -3 -78 -15 -140 -27 -122
-23 -178 -26 -307 -15 -122 10 -281 26 -310 32 -14 2 -61 7 -105 9 -44 3 -91
8 -105 10 -14 3 -50 7 -80 11 -30 3 -57 8 -58 9 -2 2 -11 39 -21 82 l-17 79
22 2 c12 1 77 10 145 21 68 11 147 22 174 26 28 3 75 10 105 15 30 5 75 12
100 15 25 3 99 14 165 25 66 11 143 22 170 25 28 4 58 9 68 11 27 8 9 25 -21
20 -21 -4 -301 -46 -477 -71 -16 -3 -39 -6 -50 -9 -11 -2 -42 -7 -70 -11 -27
-3 -93 -13 -145 -21 -199 -31 -187 -31 -196 7 -10 44 -11 48 -17 89 -4 19 -13
64 -21 100 -8 36 -17 76 -20 90 -2 14 -14 70 -26 125 -12 55 -23 136 -25 180
-6 129 -14 196 -41 360 -8 50 -17 104 -20 120 -2 17 -6 41 -9 55 -3 14 -7 39
-9 55 -3 17 -14 84 -25 150 -11 66 -23 138 -26 160 -4 22 -8 47 -10 55 -2 8
-7 38 -11 65 -3 28 -8 52 -9 55 -2 3 -6 26 -10 50 -5 36 -72 371 -90 455 -18
80 -30 131 -50 205 -13 47 -26 114 -29 150 -6 61 -9 83 -21 155 -3 17 -9 57
-15 90 -5 33 -14 75 -19 93 -9 31 -9 32 22 33 77 3 279 7 626 13 206 4 377 9
380 11 10 11 -11 17 -61 17 -63 0 -744 -12 -876 -16 -56 -1 -96 2 -101 8 -4 6
-16 43 -26 81 -18 70 -45 121 -84 163 -20 20 -20 22 -4 23 10 0 281 3 603 5
835 8 775 5 775 28 0 19 -10 20 -400 17 -220 -1 -537 -3 -705 -4 l-304 -2 -7
40 c-9 46 -17 89 -24 125 -3 14 -7 39 -10 55 -16 91 -56 312 -60 325 -2 8 -6
33 -10 55 -5 41 -21 130 -30 175 -3 14 -8 39 -10 55 -27 153 -30 161 -54 146z
m-4701 -1062 c0 -3 -9 -18 -20 -32 -11 -14 -20 -31 -20 -39 0 -10 -3 -9 -10 2
-10 15 -14 63 -5 71 7 8 55 6 55 -2z m4715 -282 c4 -18 22 -122 70 -402 3 -16
7 -41 10 -55 3 -13 7 -42 11 -64 3 -22 7 -43 9 -46 1 -3 6 -27 9 -55 4 -27 9
-57 11 -65 2 -8 6 -33 10 -55 3 -22 12 -78 20 -125 8 -47 17 -98 20 -115 3
-16 12 -66 20 -110 7 -44 16 -93 19 -110 13 -78 46 -272 50 -291 4 -22 64
-371 72 -419 2 -16 9 -52 14 -80 10 -52 109 -622 115 -665 2 -14 8 -47 14 -75
5 -27 12 -70 16 -95 4 -25 10 -64 15 -87 6 -36 5 -43 -9 -44 -9 0 -25 -2 -36
-4 -23 -4 -72 -12 -130 -20 -22 -3 -98 -15 -170 -26 -71 -11 -143 -22 -160
-25 -16 -2 -41 -6 -55 -9 -14 -2 -43 -7 -65 -10 -36 -5 -127 -19 -195 -30 -14
-2 -47 -6 -73 -9 -27 -3 -52 -8 -55 -10 -4 -2 -34 -7 -67 -11 -32 -3 -62 -8
-65 -10 -3 -1 -30 -6 -60 -9 -30 -4 -82 -11 -115 -16 -33 -5 -78 -12 -100 -15
-22 -4 -78 -12 -125 -20 -47 -8 -105 -17 -130 -20 -25 -3 -56 -8 -70 -10 -14
-3 -41 -7 -60 -10 -19 -3 -46 -7 -60 -10 -14 -2 -45 -7 -70 -10 -25 -3 -56 -8
-70 -10 -34 -6 -76 -13 -130 -20 -25 -3 -70 -10 -100 -15 -77 -13 -108 -18
-160 -25 -25 -3 -70 -10 -100 -15 -30 -5 -102 -16 -160 -25 -58 -8 -116 -17
-130 -20 -14 -3 -45 -7 -70 -10 -25 -3 -56 -8 -70 -11 -14 -3 -38 -8 -55 -10
-16 -2 -48 -7 -70 -10 -22 -4 -47 -8 -55 -9 -26 -3 -124 -16 -150 -20 -14 -3
-70 -11 -125 -20 -55 -9 -111 -18 -125 -20 -52 -7 -116 -17 -134 -21 -10 -2
-37 -6 -60 -8 -22 -3 -52 -8 -66 -10 -14 -3 -43 -7 -65 -11 -22 -3 -69 -10
-105 -16 -36 -6 -74 -12 -85 -14 -11 -1 -56 -8 -100 -14 -44 -6 -91 -13 -105
-16 -25 -4 -79 -13 -135 -20 -16 -2 -55 -8 -85 -14 -30 -5 -56 -8 -58 -6 -4 4
-11 43 -17 104 -3 31 -8 67 -10 81 -3 14 -7 48 -10 75 -5 45 -9 79 -20 155 -2
14 -6 45 -9 70 -12 102 -57 467 -61 495 -2 17 -11 91 -20 165 -19 160 -20 162
-40 314 -9 66 -17 135 -19 155 -7 58 -36 303 -42 341 -3 19 -12 89 -20 155 -8
66 -17 137 -19 158 -5 37 -11 86 -20 155 -2 20 -9 75 -15 122 -10 81 -15 122
-25 200 -3 19 -9 76 -15 125 -6 50 -13 101 -15 115 -2 14 -6 48 -9 75 -3 28
-8 66 -11 85 -5 35 -11 87 -21 165 -2 22 -6 56 -9 75 -2 19 -7 60 -10 90 -4
30 -8 62 -11 72 -3 9 -1 19 3 21 8 5 299 12 918 22 127 2 372 7 545 10 173 4
405 8 515 10 110 2 358 6 550 10 193 4 436 8 540 10 726 13 930 17 932 18 1 1
85 3 187 4 185 3 186 3 191 -20z m-4708 -559 c-3 -7 -5 -2 -5 12 0 14 2 19 5
13 2 -7 2 -19 0 -25z m5598 -2663 c39 -4 81 -8 95 -10 14 -2 54 -6 90 -10 36
-3 81 -8 100 -10 19 -2 64 -7 100 -10 36 -3 79 -8 95 -10 17 -2 64 -7 105 -11
41 -3 77 -8 81 -10 3 -1 39 -6 80 -10 40 -3 77 -8 80 -10 3 -1 32 -6 65 -9 32
-3 77 -7 99 -10 22 -2 67 -7 100 -10 33 -4 71 -8 85 -10 14 -2 72 -9 130 -15
58 -6 117 -13 131 -16 15 -2 45 -6 68 -9 83 -10 116 -15 136 -19 11 -2 49 -7
85 -10 36 -4 76 -9 90 -11 27 -5 88 -11 190 -20 36 -3 76 -8 90 -10 14 -3 59
-7 100 -10 41 -3 91 -7 110 -10 19 -3 83 -7 142 -10 98 -4 160 -10 213 -20 11
-2 38 -4 59 -4 35 -1 44 -12 13 -17 -7 -1 -41 -10 -77 -19 -36 -9 -78 -19 -95
-22 -16 -2 -43 -8 -60 -13 -16 -5 -41 -11 -55 -14 -65 -11 -407 -86 -570 -125
-47 -11 -101 -23 -120 -26 -90 -15 -161 -27 -225 -40 -38 -8 -81 -16 -95 -18
-39 -7 -359 -76 -425 -92 -33 -8 -114 -26 -180 -40 -66 -14 -161 -37 -211 -50
-84 -23 -247 -59 -319 -70 -29 -5 -60 -11 -100 -20 -11 -2 -107 -25 -214 -50
-107 -25 -255 -59 -330 -75 -75 -16 -199 -43 -276 -60 -77 -17 -149 -32 -160
-34 -37 -7 -338 -75 -475 -106 -74 -17 -144 -33 -155 -36 -11 -2 -31 -6 -45
-9 -133 -28 -213 -34 -320 -21 -30 3 -75 8 -100 11 -56 7 -91 12 -255 40 -49
9 -103 18 -120 21 -16 2 -55 9 -85 14 -80 14 -108 18 -171 25 -31 3 -65 7 -75
9 -11 2 -41 7 -69 10 -110 14 -132 17 -185 26 -30 5 -75 11 -100 14 -60 8 -87
13 -205 37 -128 27 -134 28 -170 35 -16 3 -91 16 -165 30 -74 14 -155 27 -180
30 -25 3 -70 9 -100 14 -30 5 -98 14 -150 20 -52 6 -109 13 -127 15 -17 3 -64
7 -105 10 -68 6 -367 62 -538 101 l-75 18 60 12 c33 6 78 15 100 18 22 3 51 8
65 10 14 3 79 14 145 26 66 11 131 23 145 25 50 10 77 14 200 35 69 11 145 25
170 30 25 5 61 12 80 14 19 3 44 7 55 9 37 8 90 17 130 23 22 3 58 9 80 14 22
5 83 16 135 24 52 9 105 18 116 20 12 2 38 7 58 10 19 3 75 13 123 21 149 27
196 34 241 37 23 1 42 5 42 8 0 3 35 12 78 19 42 7 86 15 97 17 11 2 34 7 50
9 81 14 143 25 175 30 19 3 46 8 60 10 14 3 43 7 65 10 22 2 58 7 80 11 22 3
51 7 65 9 105 15 387 59 485 76 66 11 131 22 145 24 14 2 68 11 120 20 131 22
140 24 185 30 50 8 99 19 193 45 40 11 103 22 140 25 66 6 93 10 142 20 13 2
42 7 65 10 22 3 47 8 55 10 14 3 105 14 175 20 17 2 44 6 60 8 17 3 66 11 110
17 137 20 150 22 154 26 3 2 12 2 20 0 9 -3 48 -8 86 -11z m3335 -332 c69 -7
98 -11 130 -13 14 -1 -38 -17 -115 -35 -77 -18 -153 -36 -168 -40 -27 -7 -28
-7 -23 31 2 22 5 47 5 57 1 20 5 20 171 0z m-2919 -699 c-29 -13 -59 -24 -65
-24 -7 0 -16 -4 -21 -8 -25 -21 -209 -80 -303 -97 -15 -2 -65 -13 -112 -24
-47 -10 -249 -55 -450 -100 -201 -45 -401 -90 -445 -101 -44 -10 -91 -21 -105
-24 -14 -2 -119 -25 -235 -51 -204 -45 -278 -60 -340 -70 -50 -9 -89 -16 -107
-21 -13 -4 -22 3 -30 23 -6 15 -18 36 -26 45 -13 15 -7 15 61 -3 l75 -21 84
22 c45 12 90 23 98 25 8 2 49 13 90 24 41 11 131 32 200 46 69 13 186 39 260
56 74 17 144 32 155 35 11 2 43 10 70 19 28 8 97 24 155 35 129 26 109 21 265
64 72 19 148 38 170 41 51 7 464 100 530 119 76 22 86 18 26 -10z"/>
<path d="M6096 8152 c-38 -92 -96 -232 -128 -312 -33 -80 -65 -158 -72 -175
-8 -16 -21 -50 -31 -75 -10 -25 -26 -63 -36 -85 -28 -65 -344 -831 -358 -868
-6 -15 -114 107 -526 595 -723 854 -897 1058 -899 1058 -2 0 12 -87 29 -192
18 -106 35 -209 38 -228 3 -19 10 -64 16 -100 6 -36 13 -83 17 -105 3 -22 16
-105 29 -185 14 -80 27 -163 30 -185 3 -22 8 -49 10 -61 3 -12 9 -52 15 -90 5
-38 12 -80 14 -94 3 -14 14 -83 26 -155 11 -71 23 -141 25 -155 2 -14 16 -97
30 -185 14 -88 28 -171 30 -184 2 -14 12 -72 21 -130 25 -165 66 -216 169
-213 116 2 177 83 155 203 -7 37 -47 289 -66 409 -3 19 -9 60 -14 90 -5 30
-12 69 -14 85 -11 65 -16 93 -31 185 -9 52 -18 109 -20 125 -2 17 -6 48 -10
69 -6 36 22 6 300 -320 169 -197 322 -375 339 -395 17 -20 52 -60 77 -90 272
-318 292 -340 299 -328 5 8 52 122 105 254 53 132 144 357 202 500 58 143 111
274 118 290 7 17 25 60 40 98 16 37 29 66 31 64 2 -1 6 -25 9 -52 6 -49 10
-73 19 -125 4 -21 16 -94 61 -370 2 -14 13 -86 25 -160 21 -134 35 -186 55
-205 61 -62 157 -60 211 3 26 29 40 97 29 139 -4 16 -8 37 -10 48 -2 11 -9 54
-15 95 -7 41 -14 84 -16 95 -3 11 -6 36 -9 56 -3 20 -16 106 -30 190 -14 85
-32 197 -41 249 -8 52 -17 111 -21 130 -3 19 -7 45 -9 58 -1 12 -17 109 -34
215 -18 105 -33 201 -35 212 -1 11 -5 36 -9 55 -11 65 -16 95 -22 145 -4 28
-8 53 -10 57 -3 4 -7 29 -10 55 -3 26 -11 73 -17 105 l-12 56 -69 -166z"/>
<path d="M7899 5526 c-2 -2 -24 -7 -49 -11 -25 -3 -52 -8 -60 -10 -8 -2 -31
-7 -50 -10 -19 -3 -60 -10 -90 -15 -30 -6 -68 -13 -85 -15 -16 -3 -64 -12
-105 -20 -41 -8 -88 -17 -105 -20 -25 -4 -117 -20 -280 -49 -16 -3 -40 -8 -51
-10 -12 -2 -37 -7 -55 -10 -19 -3 -47 -8 -64 -11 -16 -3 -91 -16 -165 -30 -74
-13 -202 -36 -285 -50 -82 -15 -161 -29 -175 -31 -14 -3 -48 -9 -76 -15 -28
-5 -64 -12 -80 -15 -16 -2 -128 -22 -249 -44 -121 -22 -231 -41 -245 -44 -14
-2 -65 -11 -115 -21 -49 -9 -102 -18 -117 -20 -15 -2 -35 -6 -45 -9 -10 -3
-38 -8 -63 -11 -25 -3 -52 -8 -60 -10 -8 -2 -31 -7 -50 -10 -55 -9 -534 -95
-605 -109 -11 -2 -54 -10 -95 -17 -41 -7 -78 -14 -82 -15 -5 -1 -20 -2 -34 -3
-14 0 -23 -5 -19 -10 3 -6 13 -9 23 -9 9 1 35 -2 57 -6 46 -8 83 -14 140 -21
22 -3 78 -12 125 -20 47 -8 105 -17 130 -20 25 -3 70 -10 100 -15 30 -5 75
-11 100 -14 25 -4 54 -8 65 -10 25 -5 88 -14 140 -22 22 -3 51 -7 65 -9 14 -3
43 -7 65 -10 22 -3 81 -12 130 -20 50 -8 113 -17 140 -20 28 -4 57 -8 65 -10
26 -7 114 -18 135 -17 11 1 40 6 65 11 25 6 153 31 285 56 132 26 353 69 490
96 138 27 259 51 270 53 11 2 92 18 180 35 88 17 169 33 180 35 11 2 101 20
200 40 99 19 196 38 215 41 19 3 62 12 95 20 33 7 77 16 97 19 21 3 57 10 80
15 24 6 57 12 73 15 36 7 77 14 315 61 102 20 196 38 210 41 14 2 36 7 50 10
14 3 36 8 50 10 14 3 102 20 195 38 94 19 259 51 367 72 109 21 196 40 194 41
-6 6 -46 11 -131 18 -44 3 -89 8 -100 10 -11 2 -49 7 -85 10 -94 9 -159 15
-205 20 -22 2 -67 7 -100 10 -33 3 -73 8 -90 10 -16 2 -57 7 -90 10 -55 5 -93
9 -195 20 -59 6 -142 15 -205 20 -33 3 -76 8 -95 10 -19 2 -64 7 -100 10 -36
3 -81 8 -101 11 -19 2 -37 2 -40 0z"/>
<path d="M2450 8155 c0 -27 3 -45 7 -41 7 7 5 77 -3 85 -2 2 -4 -17 -4 -44z"/>
<path d="M2456 8067 c3 -10 9 -15 12 -12 3 3 0 11 -7 18 -10 9 -11 8 -5 -6z"/>
<path d="M2468 7995 c2 -14 8 -25 12 -25 4 0 5 11 2 25 -2 14 -8 25 -12 25 -4
0 -5 -11 -2 -25z"/>
<path d="M2481 7924 c0 -11 3 -14 6 -6 3 7 2 16 -1 19 -3 4 -6 -2 -5 -13z"/>
<path d="M2492 7830 c0 -19 2 -27 5 -17 2 9 2 25 0 35 -3 9 -5 1 -5 -18z"/>
<path d="M2498 7737 c2 -28 8 -68 12 -87 6 -24 7 -12 3 35 -7 89 -8 93 -14
100 -3 3 -4 -19 -1 -48z"/>
</g>
</svg>
